<svg id="Layer_1" data-name="Layer 1" xmlns="http://www.w3.org/2000/svg" viewBox="0 0 707 200"><defs><style>.cls-1{fill:#5e9dc8;}.cls-2,.cls-3{fill:#0c2c52;}.cls-3{font-size:184.33px;font-family:ShareTech-Regular, Share Tech;letter-spacing:-0.05em;}.cls-4{letter-spacing:-0.06em;}.cls-5{letter-spacing:-0.06em;}</style></defs><title>logo-svg</title><path class="cls-1" d="M94.46,105,65,100.43c80.09,76.16,163,76.3,241.47.92C228.11,156.93,157.86,169.44,94.46,105Z"/><path class="cls-2" d="M249.29,108.72c0-55.09-82.95-55.09-82.95,0,0-41.47,63.42-46.65,66.36-5.53Z"/><path class="cls-1" d="M166.34,108.72c0,55.09,82.95,55.09,82.95,0,0,38.71-63.6,44.23-66.36,5.53Z"/><path class="cls-2" d="M316.56,112.41,347.9,117c-80.08-76.17-162.1-75.38-240.54,0C183,60.51,250.28,46.33,316.56,112.41Z"/><text class="cls-3" transform="translate(353.19 149.68)">s<tspan class="cls-4" x="64.33" y="0">k</tspan><tspan class="cls-5" x="138.8" y="0">y</tspan><tspan x="212.16" y="0">e</tspan></text></svg>