<svg id="Layer_1" data-name="Layer 1" xmlns="http://www.w3.org/2000/svg" viewBox="0 0 512 512"><defs><style>.cls-1{fill:#5e9dc8;}.cls-2{fill:#0c2c52;}</style></defs><title>logo-icon</title><path class="cls-1" d="M53.37,259.63,0,253.6C144.92,391.42,295,389.36,437,253,295.22,353.54,168.11,376.18,53.37,259.63Z"/><path class="cls-2" d="M333.55,266.3c0-99.69-150.1-99.69-150.1,0,0-75.05,114.77-84.42,120.08-10Z"/><path class="cls-1" d="M183.45,266.3c0,99.69,150.1,99.69,150.1,0,0,70-115.08,80-120.08,10Z"/><path class="cls-2" d="M455.3,275.28l56.7,8.34C367.08,145.79,218.67,144.9,76.72,281.31,213.65,179.05,335.34,155.7,455.3,275.28Z"/></svg>